# xmcd
#
# Track frame offsets:
# 150
# 16660
# 34714
# 53825
# 65290
# 78503
# 91235
# 103603
# 119993
# 135045
# 150065
# 164483
# 178442
# 196275
# 211865
# 229556
# 242005
# 257190
# 269820
# 286082
#
# Disc length: 3996 seconds
#
#
# Revision: 0
# Processed by: cddbd v1.5.1PL2 Copyright (c) Steve Scherf et al.
# Submitted via: FreeRIP 2.943 
#
DISCID=0c0f9a14
DTITLE=Tiao Carreiro e Pardinho  - Os Reis da Viola
DYEAR=1900
DGENRE=Sertanejo
TTITLE0=MÃO DO TEMPO
TTITLE1=MEU RECANTO MEU PARAISO
TTITLE2=A VISÃO DE UM PRETO VELHO
TTITLE3=QUANDO SE AMA EM GOIÁS
TTITLE4=REI DO GADO
TTITLE5=NO FIM DOS TEMPOS
TTITLE6=AMARGA PAIXÃO
TTITLE7=PÉ DE IPÊ
TTITLE8=A VACA JÁ FOI PRO BREJO
TTITLE9=MINHA VIDA MINHA LUZ
TTITLE10=BOM JESUS DO PARANÁ
TTITLE11=CHICO MINEIRO
TTITLE12=A COISA TA FEIA
TTITLE13=MANTENDO A TRADIÇÃO
TTITLE14=MAGOA DE BOIADEIRO
TTITLE15=MOURÃO DA PORTEIRA
TTITLE16=TRAVESSIA DO ARAGUAIA
TTITLE17=PALAVRA DE HONRA
TTITLE18=JOÃO DE BARRO
TTITLE19=VELHO CANDIEIRO
EXTD=Emerson@betim.mg.gov.br
EXTT0=
EXTT1=
EXTT2=
EXTT3=
EXTT4=
EXTT5=
EXTT6=
EXTT7=
EXTT8=
EXTT9=
EXTT10=
EXTT11=
EXTT12=
EXTT13=
EXTT14=
EXTT15=
EXTT16=
EXTT17=
EXTT18=
EXTT19=
PLAYORDER=
